<svg xmlns="http://www.w3.org/2000/svg" width="74.121" height="84.333" viewBox="0 0 74.121 84.333"><defs><style>.a{fill:none;}.b{fill:#333e73;}.c{fill:#1f2859;}.d{fill:#fc3;}.e{fill:#ffea80;}</style></defs><g transform="translate(24.707 45.972)"><path class="a" d="M218.412,362H211v4.941h7.412" transform="translate(-206.059 -348.346)"/><path class="b" d="M200.766,279.1v8.713H185.941V279.1H181v38.361h4.941v-4.941h14.824v4.941h4.941V279.1Zm0,28.478H185.941v-4.941h14.824Zm0-9.883H185.941v-4.941h14.824Z" transform="translate(-181 -279.104)"/><path class="c" d="M263.412,317.465h4.941V279.1h-4.941v8.713H256v4.941h7.412V297.7H256v4.941h7.412v4.941H256v4.941h7.412Z" transform="translate(-243.646 -279.104)"/></g><path class="d" d="M421,302h4.941v4.941H421Z" transform="translate(-356.762 -252.256)"/><path class="d" d="M421,362h4.941v4.941H421Z" transform="translate(-356.762 -302.374)"/><path class="d" d="M451,332h4.941v4.941H451Z" transform="translate(-381.82 -277.315)"/><path class="d" d="M391,332h4.941v4.941H391Z" transform="translate(-331.703 -277.315)"/><g transform="translate(0 0)"><path class="e" d="M91,392h4.941v4.941H91Z" transform="translate(-81.117 -327.432)"/><path class="e" d="M91,452h4.941v4.941H91Z" transform="translate(-81.117 -377.549)"/><path class="e" d="M121,422h4.941v4.941H121Z" transform="translate(-106.176 -352.491)"/><path class="e" d="M61,422h4.941v4.941H61Z" transform="translate(-56.059 -352.491)"/><path class="e" d="M61,212h4.941v4.941H61Z" transform="translate(-56.059 -177.081)"/><path class="e" d="M61,272h4.941v4.941H61Z" transform="translate(-56.059 -227.198)"/><path class="e" d="M91,242h4.941v4.941H91Z" transform="translate(-81.117 -202.139)"/><path class="e" d="M31,242h4.941v4.941H31Z" transform="translate(-31 -202.139)"/><path class="e" d="M143.705,19.938l-19.066-2.77L116.122,0,107.6,17.168l-19.066,2.77,13.792,13.611L99.076,52.53l17.046-8.964,17.046,8.964-3.255-18.981Z" transform="translate(-79.062)"/></g><path class="d" d="M269.792,33.549l13.792-13.611-19.066-2.77L256,0V43.567l17.046,8.964Z" transform="translate(-218.939 0)"/></svg>